<svg width="129" height="25" viewBox="0 0 129 25" fill="none" xmlns="http://www.w3.org/2000/svg">
<path d="M127.353 14.4479C127.809 14.4479 128.179 14.0783 128.179 13.6223C128.179 13.1664 127.809 12.7967 127.353 12.7967L123.638 12.7967C123.182 12.7967 122.813 13.1664 122.813 13.6223C122.813 14.0783 123.182 14.4479 123.638 14.4479L127.353 14.4479Z" fill="#39C662"/>
<path d="M127.052 8.03469C127.447 7.8067 127.582 7.30178 127.354 6.9069C127.126 6.51203 126.621 6.37673 126.226 6.60471L123.009 8.4623C122.614 8.69028 122.479 9.19521 122.707 9.59009C122.935 9.98496 123.44 10.1203 123.835 9.89228L127.052 8.03469Z" fill="#39C662"/>
<path d="M122.959 2.92463C123.187 2.52976 123.052 2.02483 122.657 1.79685C122.262 1.56887 121.757 1.70416 121.529 2.09904L119.672 5.31648C119.444 5.71135 119.579 6.21628 119.974 6.44426C120.369 6.67224 120.874 6.53695 121.102 6.14207L122.959 2.92463Z" fill="#39C662"/>
<path d="M116.621 0.825595C116.621 0.369632 116.251 0 115.795 0C115.339 0 114.969 0.369632 114.969 0.825595V4.54077C114.969 4.99674 115.339 5.36637 115.795 5.36637C116.251 5.36637 116.621 4.99674 116.621 4.54077V0.825595Z" fill="#39C662"/>
<path d="M110.223 1.95334C109.995 1.55847 109.49 1.42317 109.095 1.65115C108.7 1.87913 108.565 2.38406 108.793 2.77894L110.65 5.99638C110.878 6.39125 111.383 6.52655 111.778 6.29856C112.173 6.07058 112.308 5.56566 112.08 5.17078L110.223 1.95334Z" fill="#39C662"/>
<path d="M115.586 8.2146C116.989 8.2146 118.118 8.64804 118.971 9.51491C119.838 10.368 120.271 11.5651 120.271 13.1063V19.8142H117.382V13.4984C117.382 12.604 117.155 11.9229 116.701 11.4551C116.246 10.9735 115.627 10.7327 114.843 10.7327C114.059 10.7327 113.433 10.9735 112.965 11.4551C112.511 11.9229 112.284 12.604 112.284 13.4984V19.8142H109.394V13.4984C109.394 12.604 109.167 11.9229 108.713 11.4551C108.259 10.9735 107.64 10.7327 106.855 10.7327C106.057 10.7327 105.424 10.9735 104.956 11.4551C104.502 11.9229 104.275 12.604 104.275 13.4984V19.8142H101.386V8.37972H104.275V9.76259C104.647 9.28099 105.122 8.9026 105.699 8.6274C106.291 8.3522 106.938 8.2146 107.64 8.2146C108.534 8.2146 109.332 8.40724 110.034 8.79252C110.736 9.16403 111.279 9.70067 111.664 10.4024C112.036 9.74195 112.573 9.21219 113.274 8.81316C113.99 8.41412 114.76 8.2146 115.586 8.2146Z" fill="black"/>
<path d="M98.534 8.37975V19.8142H95.6238V18.3695C95.2523 18.8648 94.7638 19.257 94.1584 19.5459C93.5667 19.8211 92.92 19.9587 92.2182 19.9587C91.3238 19.9587 90.5326 19.773 89.8446 19.4014C89.1566 19.0162 88.6131 18.4589 88.2141 17.7296C87.8288 16.9866 87.6362 16.1059 87.6362 15.0877V8.37975H90.5258V14.6749C90.5258 15.5831 90.7528 16.2848 91.2069 16.7802C91.6609 17.2618 92.2801 17.5026 93.0645 17.5026C93.8625 17.5026 94.4886 17.2618 94.9427 16.7802C95.3968 16.2848 95.6238 15.5831 95.6238 14.6749V8.37975H98.534Z" fill="black"/>
<path d="M83.102 10.7534V16.2849C83.102 16.6702 83.1915 16.9523 83.3704 17.1311C83.563 17.2963 83.8795 17.3788 84.3198 17.3788H85.6614V19.8143H83.8451C81.4096 19.8143 80.1918 18.631 80.1918 16.2643V10.7534H78.8296V8.37983H80.1918V5.55216H83.102V8.37983H85.6614V10.7534H83.102Z" fill="black"/>
<path d="M72.4283 8.2146C73.7905 8.2146 74.8913 8.64804 75.7307 9.51491C76.57 10.368 76.9897 11.5651 76.9897 13.1063V19.8142H74.1001V13.4984C74.1001 12.5903 73.8731 11.8954 73.419 11.4138C72.9649 10.9184 72.3457 10.6707 71.5614 10.6707C70.7634 10.6707 70.1304 10.9184 69.6626 11.4138C69.2085 11.8954 68.9814 12.5903 68.9814 13.4984V19.8142H66.0919V8.37972H68.9814V9.80387C69.3667 9.30851 69.8552 8.92324 70.4469 8.64804C71.0523 8.35908 71.7128 8.2146 72.4283 8.2146Z" fill="black"/>
<path d="M63.9831 13.8493C63.9831 14.2621 63.9555 14.6336 63.9005 14.9638H55.5413C55.6101 15.7894 55.8991 16.4362 56.4082 16.904C56.9173 17.3718 57.5434 17.6058 58.2864 17.6058C59.3597 17.6058 60.1234 17.1448 60.5775 16.2229H63.6941C63.3639 17.3237 62.7309 18.2318 61.7952 18.9473C60.8595 19.6491 59.7106 20 58.3484 20C57.2476 20 56.2569 19.7592 55.3762 19.2776C54.5093 18.7822 53.8282 18.0873 53.3329 17.193C52.8513 16.2986 52.6105 15.2666 52.6105 14.097C52.6105 12.9136 52.8513 11.8747 53.3329 10.9803C53.8145 10.086 54.4887 9.39796 55.3556 8.91636C56.2225 8.43476 57.2201 8.19396 58.3484 8.19396C59.4354 8.19396 60.4055 8.42788 61.2586 8.89572C62.1255 9.36356 62.7928 10.0309 63.2607 10.8978C63.7423 11.7509 63.9831 12.7347 63.9831 13.8493ZM60.9903 13.0237C60.9765 12.2807 60.7082 11.689 60.1853 11.2487C59.6624 10.7946 59.0226 10.5676 58.2658 10.5676C57.5503 10.5676 56.9449 10.7877 56.4495 11.228C55.9679 11.6546 55.6721 12.2531 55.562 13.0237H60.9903Z" fill="black"/>
<path d="M45.9262 8.2146C47.3297 8.2146 48.458 8.64804 49.3111 9.51491C50.178 10.368 50.6114 11.5651 50.6114 13.1063V19.8142H47.7219V13.4984C47.7219 12.604 47.4948 11.9229 47.0407 11.4551C46.5867 10.9735 45.9675 10.7327 45.1832 10.7327C44.3988 10.7327 43.7728 10.9735 43.3049 11.4551C42.8508 11.9229 42.6238 12.604 42.6238 13.4984V19.8142H39.7342V13.4984C39.7342 12.604 39.5072 11.9229 39.0531 11.4551C38.599 10.9735 37.9798 10.7327 37.1955 10.7327C36.3974 10.7327 35.7645 10.9735 35.2967 11.4551C34.8426 11.9229 34.6155 12.604 34.6155 13.4984V19.8142H31.726V8.37972H34.6155V9.76259C34.9871 9.28099 35.4618 8.9026 36.0397 8.6274C36.6314 8.3522 37.2781 8.2146 37.9798 8.2146C38.8742 8.2146 39.6723 8.40724 40.3741 8.79252C41.0758 9.16403 41.6193 9.70067 42.0046 10.4024C42.3761 9.74195 42.9128 9.21219 43.6145 8.81316C44.33 8.41412 45.1006 8.2146 45.9262 8.2146Z" fill="black"/>
<path d="M23.6411 20C22.5403 20 21.5495 19.7592 20.6689 19.2776C19.7883 18.7822 19.0934 18.0873 18.5843 17.193C18.0889 16.2986 17.8412 15.2666 17.8412 14.097C17.8412 12.9274 18.0958 11.8954 18.6049 11.001C19.1278 10.1066 19.8364 9.4186 20.7308 8.937C21.6252 8.44164 22.6228 8.19396 23.7236 8.19396C24.8244 8.19396 25.822 8.44164 26.7164 8.937C27.6108 9.4186 28.3125 10.1066 28.8217 11.001C29.3445 11.8954 29.606 12.9274 29.606 14.097C29.606 15.2666 29.3377 16.2986 28.801 17.193C28.2781 18.0873 27.5626 18.7822 26.6545 19.2776C25.7601 19.7592 24.7556 20 23.6411 20ZM23.6411 17.4819C24.1639 17.4819 24.6524 17.3581 25.1065 17.1104C25.5743 16.849 25.9458 16.4637 26.221 15.9546C26.4962 15.4454 26.6338 14.8262 26.6338 14.097C26.6338 13.0099 26.3449 12.1775 25.767 11.5995C25.2028 11.0079 24.5079 10.712 23.6823 10.712C22.8567 10.712 22.1619 11.0079 21.5977 11.5995C21.0473 12.1775 20.7721 13.0099 20.7721 14.097C20.7721 15.184 21.0404 16.0234 21.5771 16.615C22.1275 17.193 22.8155 17.4819 23.6411 17.4819Z" fill="black"/>
<path d="M15.7069 5.40754V19.8142H12.8174V10.4437L8.95771 19.8142H6.76988L2.88958 10.4437V19.8142H0V5.40754H3.28174L7.86379 16.1196L12.4458 5.40754H15.7069Z" fill="black"/>
</svg>
