<svg width="353" height="20" viewBox="0 0 353 20" fill="none" xmlns="http://www.w3.org/2000/svg">
<path d="M7.94466e-08 20C2.65216 20 5.1957 18.9464 7.07107 17.0711C8.94643 15.1957 10 12.6522 10 10C10 7.34784 8.94643 4.8043 7.07107 2.92893C5.19571 1.05357 2.65217 7.92818e-08 2.86102e-06 -4.37114e-07L5.1656e-07 10L7.94466e-08 20Z" fill="#FFFFFF"/>
<rect x="10.25" y="9.75" width="332.5" height="0.5" stroke="#75A898" stroke-width="0.5" stroke-dasharray="6 6"/>
<path d="M353 -4.37114e-07C350.348 -3.21184e-07 347.804 1.05357 345.929 2.92893C344.054 4.8043 343 7.34783 343 10C343 12.6522 344.054 15.1957 345.929 17.0711C347.804 18.9464 350.348 20 353 20L353 10L353 -4.37114e-07Z" fill="#FFFFFF"/>
</svg>
